<svg width="4661" height="6654" viewBox="0 0 4661 6654" fill="none" xmlns="http://www.w3.org/2000/svg">
<mask id="path-1-inside-1" fill="white">
<path fill-rule="evenodd" clip-rule="evenodd" d="M3144.44 6654L4660.37 6654L4660.37 4912.88L3748 4912.88L3748 3088.14L4660.37 3088.14L4660.37 1235.26L4450.08 1235.26L4450.08 -1.83843e-05L3565.03 -9.57576e-05L3565.03 1235.26L3228.06 1235.26L3228.06 2316.52L1810.66 2316.52L1810.66 3285.19L0.000294511 3285.19L0.000184133 4547.77L1810.66 4547.77L1810.66 5446.89L3144.44 5446.89L3144.44 6654Z"/>
</mask>
<path d="M4660.37 6654L4660.37 6685L4691.37 6685L4691.37 6654L4660.37 6654ZM3144.44 6654L3113.44 6654L3113.44 6685L3144.44 6685L3144.44 6654ZM4660.37 4912.88L4691.37 4912.88L4691.37 4881.88L4660.37 4881.88L4660.37 4912.88ZM3748 4912.88L3717 4912.88L3717 4943.88L3748 4943.88L3748 4912.88ZM3748 3088.14L3748 3057.14L3717 3057.14L3717 3088.14L3748 3088.14ZM4660.37 3088.14L4660.37 3119.14L4691.37 3119.14L4691.37 3088.14L4660.37 3088.14ZM4660.37 1235.26L4691.37 1235.26L4691.37 1204.26L4660.37 1204.26L4660.37 1235.26ZM4450.08 1235.26L4419.08 1235.26L4419.08 1266.26L4450.08 1266.26L4450.08 1235.26ZM4450.08 -1.83843e-05L4481.08 -1.56742e-05L4481.08 -31L4450.08 -31L4450.08 -1.83843e-05ZM3565.03 -9.57576e-05L3565.03 -31.0001L3534.03 -31.0001L3534.03 -9.84677e-05L3565.03 -9.57576e-05ZM3565.03 1235.26L3565.03 1266.26L3596.03 1266.26L3596.03 1235.26L3565.03 1235.26ZM3228.06 1235.26L3228.06 1204.26L3197.06 1204.26L3197.06 1235.26L3228.06 1235.26ZM3228.06 2316.52L3228.06 2347.52L3259.06 2347.52L3259.06 2316.52L3228.06 2316.52ZM1810.66 2316.52L1810.66 2285.52L1779.66 2285.52L1779.66 2316.52L1810.66 2316.52ZM1810.66 3285.19L1810.66 3316.19L1841.66 3316.19L1841.66 3285.19L1810.66 3285.19ZM0.000294511 3285.19L0.000297221 3254.19L-30.9997 3254.19L-30.9997 3285.19L0.000294511 3285.19ZM0.000184133 4547.77L-30.9998 4547.77L-30.9998 4578.77L0.000181422 4578.77L0.000184133 4547.77ZM1810.66 4547.77L1841.66 4547.77L1841.66 4516.77L1810.66 4516.77L1810.66 4547.77ZM1810.66 5446.89L1779.66 5446.89L1779.66 5477.89L1810.66 5477.89L1810.66 5446.89ZM3144.44 5446.89L3175.44 5446.89L3175.44 5415.89L3144.44 5415.89L3144.44 5446.89ZM4660.37 6623L3144.44 6623L3144.44 6685L4660.37 6685L4660.37 6623ZM4629.37 4912.88L4629.37 6654L4691.37 6654L4691.37 4912.88L4629.37 4912.88ZM3748 4943.88L4660.37 4943.88L4660.37 4881.88L3748 4881.88L3748 4943.88ZM3779 4912.88L3779 3088.14L3717 3088.14L3717 4912.88L3779 4912.88ZM3748 3119.14L4660.37 3119.14L4660.37 3057.14L3748 3057.14L3748 3119.14ZM4691.37 3088.14L4691.37 1235.26L4629.37 1235.26L4629.37 3088.14L4691.37 3088.14ZM4660.37 1204.26L4450.08 1204.26L4450.08 1266.26L4660.37 1266.26L4660.37 1204.26ZM4481.08 1235.26L4481.08 -1.56742e-05L4419.08 -2.10944e-05L4419.08 1235.26L4481.08 1235.26ZM4450.08 -31L3565.03 -31.0001L3565.03 30.9999L4450.08 31L4450.08 -31ZM3534.03 -9.84677e-05L3534.03 1235.26L3596.03 1235.26L3596.03 -9.30475e-05L3534.03 -9.84677e-05ZM3565.03 1204.26L3228.06 1204.26L3228.06 1266.26L3565.03 1266.26L3565.03 1204.26ZM3197.06 1235.26L3197.06 2316.52L3259.06 2316.52L3259.06 1235.26L3197.06 1235.26ZM3228.06 2285.52L1810.66 2285.52L1810.66 2347.52L3228.06 2347.52L3228.06 2285.52ZM1779.66 2316.52L1779.66 3285.19L1841.66 3285.19L1841.66 2316.52L1779.66 2316.52ZM1810.66 3254.19L0.000297221 3254.19L0.000291801 3316.19L1810.66 3316.19L1810.66 3254.19ZM-30.9997 3285.19L-30.9998 4547.77L31.0002 4547.77L31.0003 3285.19L-30.9997 3285.19ZM0.000181422 4578.77L1810.66 4578.77L1810.66 4516.77L0.000186843 4516.77L0.000181422 4578.77ZM1779.66 4547.77L1779.66 5446.89L1841.66 5446.89L1841.66 4547.77L1779.66 4547.77ZM1810.66 5477.89L3144.44 5477.89L3144.44 5415.89L1810.66 5415.89L1810.66 5477.89ZM3175.44 6654L3175.44 5446.89L3113.44 5446.89L3113.44 6654L3175.44 6654Z" fill="url(#paint0_linear)" mask="url(#path-1-inside-1)"/>
<defs>
<linearGradient id="paint0_linear" x1="787.5" y1="2516" x2="4263" y2="5754.5" gradientUnits="userSpaceOnUse">
<stop stop-color="white" stop-opacity="0.13"/>
<stop offset="0.576339" stop-color="#8C8C8C" stop-opacity="0.175071"/>
<stop offset="1" stop-opacity="0"/>
</linearGradient>
</defs>
</svg>
