<svg width="6901" height="4866" viewBox="0 0 6901 4866" fill="none" xmlns="http://www.w3.org/2000/svg">
<mask id="path-1-inside-1" fill="white">
<path fill-rule="evenodd" clip-rule="evenodd" d="M4908 4866L2778 4866L2778 3493L1797 3493L1797 4544L-2.81501e-05 4544L-0.000191194 2679L1187 2679L1187 1407L2035 1407L2035 0.000425399L3843 0.000267339L3843 1696L3052 1696L3052 2577L4908 2577L4908 3374L6901 3374L6901 4544L4908 4544L4908 4866Z"/>
</mask>
<path d="M2778 4866L2758 4866L2758 4886L2778 4886L2778 4866ZM4908 4866L4908 4886L4928 4886L4928 4866L4908 4866ZM2778 3493L2798 3493L2798 3473L2778 3473L2778 3493ZM1797 3493L1797 3473L1777 3473L1777 3493L1797 3493ZM1797 4544L1797 4564L1817 4564L1817 4544L1797 4544ZM-2.81501e-05 4544L-20 4544L-20 4564L-2.64017e-05 4564L-2.81501e-05 4544ZM-0.000191194 2679L-0.000192942 2659L-20.0002 2659L-20.0002 2679L-0.000191194 2679ZM1187 2679L1187 2699L1207 2699L1207 2679L1187 2679ZM1187 1407L1187 1387L1167 1387L1167 1407L1187 1407ZM2035 1407L2035 1427L2055 1427L2055 1407L2035 1407ZM2035 0.000425399L2035 -19.9996L2015 -19.9996L2015 0.000427148L2035 0.000425399ZM3843 0.000267339L3863 0.00026559L3863 -19.9997L3843 -19.9997L3843 0.000267339ZM3843 1696L3843 1716L3863 1716L3863 1696L3843 1696ZM3052 1696L3052 1676L3032 1676L3032 1696L3052 1696ZM3052 2577L3032 2577L3032 2597L3052 2597L3052 2577ZM4908 2577L4928 2577L4928 2557L4908 2557L4908 2577ZM4908 3374L4888 3374L4888 3394L4908 3394L4908 3374ZM6901 3374L6921 3374L6921 3354L6901 3354L6901 3374ZM6901 4544L6901 4564L6921 4564L6921 4544L6901 4544ZM4908 4544L4908 4524L4888 4524L4888 4544L4908 4544ZM2778 4886L4908 4886L4908 4846L2778 4846L2778 4886ZM2758 3493L2758 4866L2798 4866L2798 3493L2758 3493ZM1797 3513L2778 3513L2778 3473L1797 3473L1797 3513ZM1777 3493L1777 4544L1817 4544L1817 3493L1777 3493ZM1797 4524L-2.98986e-05 4524L-2.64017e-05 4564L1797 4564L1797 4524ZM20 4544L19.9998 2679L-20.0002 2679L-20 4544L20 4544ZM-0.000189445 2699L1187 2699L1187 2659L-0.000192942 2659L-0.000189445 2699ZM1167 1407L1167 2679L1207 2679L1207 1407L1167 1407ZM2035 1387L1187 1387L1187 1427L2035 1427L2035 1387ZM2015 0.000427148L2015 1407L2055 1407L2055 0.000423651L2015 0.000427148ZM3843 -19.9997L2035 -19.9996L2035 20.0004L3843 20.0003L3843 -19.9997ZM3863 1696L3863 0.00026559L3823 0.000269087L3823 1696L3863 1696ZM3052 1716L3843 1716L3843 1676L3052 1676L3052 1716ZM3072 2577L3072 1696L3032 1696L3032 2577L3072 2577ZM4908 2557L3052 2557L3052 2597L4908 2597L4908 2557ZM4928 3374L4928 2577L4888 2577L4888 3374L4928 3374ZM6901 3354L4908 3354L4908 3394L6901 3394L6901 3354ZM6921 4544L6921 3374L6881 3374L6881 4544L6921 4544ZM4908 4564L6901 4564L6901 4524L4908 4524L4908 4564ZM4928 4866L4928 4544L4888 4544L4888 4866L4928 4866Z" fill="url(#paint0_linear)" mask="url(#path-1-inside-1)"/>
<defs>
<linearGradient id="paint0_linear" x1="3450.5" y1="4866" x2="3450.5" y2="0.000301652" gradientUnits="userSpaceOnUse">
<stop stop-opacity="0.13"/>
<stop offset="1" stop-color="white" stop-opacity="0.46"/>
</linearGradient>
</defs>
</svg>
