<svg width="4493" height="5359" viewBox="0 0 4493 5359" fill="none" xmlns="http://www.w3.org/2000/svg">
<mask id="path-1-inside-1" fill="white">
<path fill-rule="evenodd" clip-rule="evenodd" d="M4493 0H2204V1735H1441V961H0V2509H1051V4011H305V5359H2204V4429H3051V3836H4221V2843H3051V2275H4493V0Z"/>
</mask>
<path d="M2204 0V-26H2178V0H2204ZM4493 0H4519V-26H4493V0ZM2204 1735V1761H2230V1735H2204ZM1441 1735H1415V1761H1441V1735ZM1441 961H1467V935H1441V961ZM0 961V935H-26V961H0ZM0 2509H-26V2535H0V2509ZM1051 2509H1077V2483H1051V2509ZM1051 4011V4037H1077V4011H1051ZM305 4011V3985H279V4011H305ZM305 5359H279V5385H305V5359ZM2204 5359V5385H2230V5359H2204ZM2204 4429V4403H2178V4429H2204ZM3051 4429V4455H3077V4429H3051ZM3051 3836V3810H3025V3836H3051ZM4221 3836V3862H4247V3836H4221ZM4221 2843H4247V2817H4221V2843ZM3051 2843H3025V2869H3051V2843ZM3051 2275V2249H3025V2275H3051ZM4493 2275V2301H4519V2275H4493ZM2204 26H4493V-26H2204V26ZM2230 1735V0H2178V1735H2230ZM2204 1709H1441V1761H2204V1709ZM1467 1735V961H1415V1735H1467ZM1441 935H0V987H1441V935ZM-26 961V2509H26V961H-26ZM0 2535H1051V2483H0V2535ZM1025 2509V4011H1077V2509H1025ZM1051 3985H305V4037H1051V3985ZM279 4011V5359H331V4011H279ZM305 5385H2204V5333H305V5385ZM2230 5359V4429H2178V5359H2230ZM2204 4455H3051V4403H2204V4455ZM3077 4429V3836H3025V4429H3077ZM3051 3862H4221V3810H3051V3862ZM4247 3836V2843H4195V3836H4247ZM4221 2817H3051V2869H4221V2817ZM3077 2843V2275H3025V2843H3077ZM4493 2249H3051V2301H4493V2249ZM4467 0V2275H4519V0H4467Z" fill="url(#paint0_linear)" fill-opacity="0.2" mask="url(#path-1-inside-1)"/>
<defs>
<linearGradient id="paint0_linear" x1="2246.5" y1="0" x2="2246.5" y2="5359" gradientUnits="userSpaceOnUse">
<stop stop-color="white"/>
<stop offset="1" stop-color="white" stop-opacity="0"/>
</linearGradient>
</defs>
</svg>
