<svg width="346" height="286" viewBox="0 0 346 286" fill="none" xmlns="http://www.w3.org/2000/svg">
<path fill-rule="evenodd" clip-rule="evenodd" d="M53.7781 0.980469C44.9415 0.980469 37.7781 8.14391 37.7781 16.9805V229.64H16.1426C7.30602 229.64 0.142578 236.804 0.142578 245.64V269.662C0.142578 278.499 7.30605 285.662 16.1426 285.662H329.451C338.287 285.662 345.451 278.499 345.451 269.662V245.64C345.451 236.804 338.287 229.64 329.451 229.64H307.815V16.9805C307.815 8.14391 300.651 0.980469 291.815 0.980469H53.7781Z" fill="#EF391A"/>
<path fill-rule="evenodd" clip-rule="evenodd" d="M163.065 141.428V207.917H182.896V141.428H237.248V117.331H182.896V51.2852H163.065V117.331H108.346V141.428H163.065Z" fill="white"/>
</svg>
